<svg width="570" height="173" viewBox="0 0 570 173" fill="none" xmlns="http://www.w3.org/2000/svg">
    <path d="M289.499 47.92C287.343 47.92 285.245 48.2036 283.26 48.7708C281.274 49.338 279.403 50.132 277.644 51.2664C275.829 52.4008 274.241 53.762 272.823 55.4069H272.653V20.4681H251.894V106H272.653V77.4137C272.653 73.6703 273.39 70.8911 274.865 69.0761C276.34 67.2611 278.325 66.2969 280.934 66.2969C282.863 66.2969 284.451 66.6372 285.585 67.2044C286.719 67.7716 287.513 68.8492 288.081 70.3239C288.648 71.7986 288.931 73.8972 288.931 76.563V106H309.69V71.5717C309.69 68.5656 309.464 65.8431 309.01 63.4609C308.556 61.0787 307.875 58.9802 307.025 57.2786C306.117 55.577 305.096 54.1023 303.962 52.8545C302.771 51.6634 301.41 50.6992 299.878 49.9619C298.29 49.2812 296.702 48.7708 295 48.4305C293.299 48.0902 291.484 47.92 289.499 47.92ZM356.88 49.1111V54.7262H356.71C352.74 50.1887 347.862 47.92 341.963 47.92C338.447 47.92 335.1 48.6573 332.038 50.132C328.918 51.6067 326.252 53.5919 323.984 56.1442C321.715 58.7533 319.957 61.8728 318.709 65.5595C317.404 69.303 316.78 73.2733 316.78 77.5272C316.78 81.8945 317.404 85.9216 318.709 89.6083C320.013 93.295 321.828 96.4145 324.154 98.9669C326.423 101.576 329.202 103.561 332.491 105.036C335.781 106.51 339.354 107.191 343.211 107.191C349.564 107.191 354.442 105.036 357.845 100.668H358.015V106H377.696V49.1111H356.88ZM347.805 89.0411C344.856 89.0411 342.417 88.0202 340.545 85.9216C338.617 83.823 337.71 81.0437 337.71 77.5839C337.71 74.2375 338.617 71.515 340.545 69.3597C342.417 67.2611 344.856 66.1834 347.805 66.1834C350.641 66.1834 352.967 67.2611 354.895 69.4164C356.824 71.5717 357.788 74.2942 357.788 77.5839C357.788 80.987 356.824 83.7662 354.895 85.8648C352.967 88.0202 350.641 89.0411 347.805 89.0411ZM406.736 107.191C410.65 107.191 414.166 106.737 417.229 105.83C420.292 104.922 422.844 103.675 424.773 101.973C426.701 100.271 428.176 98.2862 429.197 96.0175C430.218 93.7487 430.728 91.1964 430.728 88.3605C430.728 86.2052 430.445 84.22 429.934 82.5184C429.367 80.8169 428.63 79.3422 427.722 78.0944C426.758 76.8466 425.453 75.7122 423.809 74.6345C422.107 73.6136 420.349 72.7061 418.477 71.912C416.605 71.118 414.28 70.2672 411.501 69.3597C408.778 68.5089 406.906 67.7716 405.942 67.2044C404.921 66.6372 404.468 66.0133 404.468 65.3894C404.468 64.652 404.808 64.0848 405.488 63.6878C406.169 63.2908 407.02 63.0639 408.041 63.0639C409.856 63.0639 411.898 63.6311 414.053 64.652C416.208 65.673 418.193 67.0909 420.008 68.9059L429.594 55.1233C427.212 53.4784 425 52.1739 422.844 51.153C420.689 50.132 418.364 49.338 415.755 48.7708C413.146 48.2036 410.366 47.92 407.36 47.92C404.354 47.92 401.518 48.3737 398.909 49.1678C396.3 50.0186 393.975 51.2097 391.989 52.7978C389.948 54.3859 388.359 56.3711 387.225 58.81C386.091 61.3056 385.523 64.0281 385.523 67.0342C385.523 69.1895 385.807 71.118 386.488 72.8762C387.112 74.6912 387.962 76.2227 389.04 77.4705C390.118 78.775 391.479 79.9661 393.067 80.987C394.655 82.0647 396.243 82.9722 397.945 83.6528C399.646 84.3334 401.518 85.0141 403.56 85.5812C405.829 86.2619 407.53 86.8291 408.665 87.3395C409.799 87.9067 410.536 88.3605 410.877 88.7008C411.16 89.0411 411.331 89.4948 411.331 90.0053C411.331 91.5934 409.913 92.3308 407.133 92.3308C402.596 92.3308 397.831 90.1755 392.897 85.8648L383.482 98.6833C389.834 104.355 397.605 107.191 406.736 107.191ZM474.515 47.92C468.276 47.92 463.228 50.2455 459.258 54.8397H459.088V49.1111H438.272V128.971H458.974V101.065H459.144C462.718 105.149 467.425 107.191 473.267 107.191C478.372 107.191 482.966 106 486.993 103.504C490.964 101.009 494.083 97.5489 496.352 93.0114C498.564 88.4739 499.698 83.3125 499.698 77.5272C499.698 74.6912 499.358 71.912 498.791 69.303C498.224 66.6939 497.373 64.255 496.295 62.0997C495.218 59.9444 493.913 57.9592 492.438 56.2009C490.907 54.4427 489.205 52.968 487.39 51.7202C485.519 50.5291 483.477 49.6216 481.321 48.9409C479.109 48.2603 476.841 47.92 474.515 47.92ZM468.673 89.0411C465.61 89.0411 463.058 88.0202 461.13 85.9216C459.144 83.823 458.18 81.0437 458.18 77.5839C458.18 74.2375 459.144 71.515 461.13 69.3597C463.058 67.2611 465.61 66.1834 468.673 66.1834C471.623 66.1834 474.005 67.2611 475.933 69.3597C477.805 71.515 478.769 74.2375 478.769 77.5839C478.769 81.0437 477.805 83.823 475.933 85.9216C474.005 88.0202 471.623 89.0411 468.673 89.0411ZM544.279 47.92C541.16 47.92 538.21 48.7141 535.488 50.2455C532.765 51.7769 530.383 53.9889 528.398 56.8816H528.228V49.1111H507.469V106H528.228V81.1572C528.228 77.7541 529.192 75.0883 531.234 73.0464C533.219 71.0045 536.168 69.9836 540.025 69.9836C541.784 69.9836 543.258 70.0403 544.393 70.097V47.92H544.279Z" fill="currentColor" />
    <path d="M262.16 136.339L257.618 144.27H257.533L252.963 136.339H248.983L255.818 147.758V156.8H259.305V147.758L266.182 136.339H262.16ZM272.453 157.025C273.86 157.025 275.125 156.73 276.25 156.125C277.375 155.52 278.247 154.663 278.88 153.566C279.499 152.469 279.822 151.203 279.822 149.797C279.822 148.391 279.499 147.125 278.88 146.014C278.247 144.917 277.375 144.059 276.264 143.455C275.139 142.85 273.874 142.541 272.453 142.541C270.991 142.541 269.697 142.864 268.572 143.497C267.447 144.13 266.575 144.988 265.971 146.084C265.366 147.181 265.071 148.419 265.071 149.797C265.071 150.823 265.239 151.78 265.605 152.666C265.957 153.566 266.449 154.325 267.082 154.972C267.714 155.619 268.502 156.111 269.43 156.477C270.358 156.842 271.357 157.025 272.453 157.025ZM272.453 154.1C271.258 154.1 270.274 153.692 269.5 152.863C268.727 152.047 268.347 151.02 268.347 149.797C268.347 148.559 268.727 147.533 269.486 146.703C270.246 145.888 271.23 145.466 272.453 145.466C273.621 145.466 274.591 145.873 275.378 146.675C276.152 147.491 276.546 148.531 276.546 149.797C276.546 151.048 276.152 152.075 275.364 152.891C274.577 153.706 273.607 154.1 272.453 154.1ZM292.549 142.752V149.473C292.549 150.205 292.45 150.88 292.253 151.47C292.057 152.061 291.789 152.553 291.452 152.919C291.114 153.298 290.721 153.594 290.299 153.791C289.863 153.988 289.413 154.086 288.935 154.086C288.428 154.086 288.021 154.03 287.683 153.917C287.346 153.805 287.05 153.594 286.825 153.313C286.586 153.031 286.418 152.666 286.305 152.188C286.193 151.723 286.15 151.133 286.15 150.43V142.752H282.93V151.302C282.93 152.328 283.057 153.214 283.31 153.959C283.563 154.705 283.914 155.295 284.393 155.731C284.871 156.181 285.419 156.505 286.038 156.716C286.657 156.927 287.374 157.025 288.175 157.025C289.005 157.025 289.793 156.856 290.552 156.505C291.297 156.153 291.944 155.647 292.507 154.972H292.549V156.8H295.769V142.752H292.549ZM318.002 135.594V144.439H317.932C316.863 143.173 315.372 142.541 313.488 142.541C312.532 142.541 311.632 142.723 310.802 143.089C309.958 143.455 309.241 143.961 308.65 144.594C308.046 145.241 307.568 146.014 307.23 146.914C306.878 147.828 306.71 148.798 306.71 149.839C306.71 150.697 306.808 151.498 307.033 152.258C307.258 153.017 307.568 153.678 307.975 154.255C308.383 154.831 308.861 155.323 309.424 155.745C309.986 156.167 310.605 156.491 311.308 156.702C312.011 156.927 312.743 157.025 313.516 157.025C315.485 157.025 317.018 156.322 318.086 154.916H318.143V156.8H321.222V135.594H318.002ZM314.022 154.1C312.827 154.1 311.857 153.706 311.111 152.919C310.352 152.131 309.986 151.105 309.986 149.853C309.986 149.206 310.085 148.602 310.296 148.039C310.507 147.477 310.802 147.013 311.168 146.647C311.533 146.281 311.955 145.986 312.447 145.775C312.939 145.578 313.474 145.466 314.036 145.466C315.232 145.466 316.216 145.888 316.975 146.717C317.735 147.561 318.128 148.602 318.128 149.853C318.128 151.119 317.735 152.131 316.947 152.919C316.16 153.706 315.175 154.1 314.022 154.1ZM338.252 149.614C338.252 148.264 337.971 147.041 337.422 145.972C336.86 144.903 336.072 144.073 335.032 143.455C333.991 142.85 332.782 142.541 331.432 142.541C330.461 142.541 329.561 142.723 328.718 143.075C327.874 143.427 327.143 143.919 326.538 144.538C325.919 145.17 325.441 145.93 325.103 146.83C324.752 147.73 324.583 148.714 324.583 149.769C324.583 151.203 324.893 152.483 325.525 153.594C326.144 154.705 327.002 155.548 328.099 156.139C329.182 156.73 330.405 157.025 331.769 157.025C333.077 157.025 334.23 156.786 335.228 156.308C336.227 155.83 337.043 155.183 337.689 154.367L335.439 152.441C334.553 153.552 333.386 154.1 331.938 154.1C330.897 154.1 330.025 153.819 329.308 153.242C328.591 152.68 328.127 151.892 327.93 150.894H338.168C338.224 150.556 338.252 150.134 338.252 149.614ZM331.6 145.466C332.191 145.466 332.725 145.592 333.203 145.831C333.682 146.07 334.061 146.394 334.357 146.816C334.652 147.238 334.877 147.73 335.018 148.292H327.986C328.211 147.392 328.647 146.703 329.294 146.211C329.941 145.719 330.7 145.466 331.6 145.466ZM341.838 156.8H345.058V145.494H348.518V142.752H345.058V140.53C345.058 140.023 345.114 139.616 345.227 139.292C345.339 138.969 345.508 138.73 345.733 138.575C345.944 138.434 346.211 138.35 346.549 138.35C347.111 138.35 347.885 138.589 348.897 139.067L349.614 136.339C348.574 135.692 347.393 135.369 346.085 135.369C344.707 135.369 343.652 135.791 342.921 136.606C342.189 137.422 341.838 138.617 341.838 140.178V142.752H340.263V145.494H341.838V156.8ZM353.018 140.656C353.397 140.656 353.749 140.572 354.086 140.375C354.424 140.178 354.691 139.925 354.888 139.588C355.085 139.264 355.183 138.913 355.183 138.519C355.183 137.942 354.958 137.436 354.536 137.014C354.114 136.592 353.608 136.381 353.018 136.381C352.399 136.381 351.893 136.592 351.471 137.014C351.049 137.436 350.838 137.928 350.838 138.519C350.838 139.109 351.049 139.616 351.471 140.038C351.893 140.459 352.399 140.656 353.018 140.656ZM351.386 156.8H354.607V142.752H351.386V156.8ZM366.996 142.541C366.068 142.541 365.21 142.723 364.394 143.089C363.578 143.455 362.875 143.989 362.285 144.678H362.243V142.752H359.022V156.8H362.243V149.741C362.243 149.066 362.327 148.461 362.496 147.913C362.664 147.378 362.918 146.928 363.241 146.563C363.55 146.211 363.944 145.944 364.394 145.747C364.844 145.564 365.336 145.466 365.885 145.466C366.391 145.466 366.813 145.536 367.178 145.663C367.544 145.803 367.853 146.014 368.135 146.309C368.402 146.605 368.599 146.998 368.739 147.505C368.866 148.011 368.936 148.63 368.936 149.361V156.814H372.157V148.531C372.157 146.506 371.693 145.002 370.778 144.017C369.864 143.033 368.599 142.541 366.996 142.541ZM388.961 149.614C388.961 148.264 388.68 147.041 388.132 145.972C387.569 144.903 386.782 144.073 385.741 143.455C384.7 142.85 383.491 142.541 382.141 142.541C381.171 142.541 380.271 142.723 379.427 143.075C378.583 143.427 377.852 143.919 377.247 144.538C376.628 145.17 376.15 145.93 375.813 146.83C375.461 147.73 375.293 148.714 375.293 149.769C375.293 151.203 375.602 152.483 376.235 153.594C376.853 154.705 377.711 155.548 378.808 156.139C379.891 156.73 381.114 157.025 382.478 157.025C383.786 157.025 384.939 156.786 385.938 156.308C386.936 155.83 387.752 155.183 388.399 154.367L386.149 152.441C385.263 153.552 384.096 154.1 382.647 154.1C381.607 154.1 380.735 153.819 380.018 153.242C379.3 152.68 378.836 151.892 378.639 150.894H388.877C388.933 150.556 388.961 150.134 388.961 149.614ZM382.31 145.466C382.9 145.466 383.435 145.592 383.913 145.831C384.391 146.07 384.771 146.394 385.066 146.816C385.361 147.238 385.586 147.73 385.727 148.292H378.696C378.921 147.392 379.357 146.703 380.003 146.211C380.65 145.719 381.41 145.466 382.31 145.466ZM416.172 142.752L413.135 152.005H413.093L410.336 142.752H407.65L404.936 151.991H404.88L401.843 142.752H398.58L403.403 156.8H406.314L408.944 147.955H409L411.63 156.8H414.611L419.435 142.752H416.172ZM434.186 149.614C434.186 148.264 433.905 147.041 433.357 145.972C432.794 144.903 432.007 144.073 430.966 143.455C429.925 142.85 428.716 142.541 427.366 142.541C426.396 142.541 425.496 142.723 424.652 143.075C423.808 143.427 423.077 143.919 422.472 144.538C421.853 145.17 421.375 145.93 421.038 146.83C420.686 147.73 420.518 148.714 420.518 149.769C420.518 151.203 420.827 152.483 421.46 153.594C422.078 154.705 422.936 155.548 424.033 156.139C425.116 156.73 426.339 157.025 427.703 157.025C429.011 157.025 430.164 156.786 431.163 156.308C432.161 155.83 432.977 155.183 433.624 154.367L431.374 152.441C430.488 153.552 429.321 154.1 427.872 154.1C426.832 154.1 425.96 153.819 425.243 153.242C424.525 152.68 424.061 151.892 423.864 150.894H434.102C434.158 150.556 434.186 150.134 434.186 149.614ZM427.535 145.466C428.125 145.466 428.66 145.592 429.138 145.831C429.616 146.07 429.996 146.394 430.291 146.816C430.586 147.238 430.811 147.73 430.952 148.292H423.921C424.146 147.392 424.582 146.703 425.228 146.211C425.875 145.719 426.635 145.466 427.535 145.466ZM455.674 135.594V144.439H455.603C454.535 143.173 453.044 142.541 451.16 142.541C450.203 142.541 449.303 142.723 448.474 143.089C447.63 143.455 446.913 143.961 446.322 144.594C445.718 145.241 445.239 146.014 444.902 146.914C444.55 147.828 444.382 148.798 444.382 149.839C444.382 150.697 444.48 151.498 444.705 152.258C444.93 153.017 445.239 153.678 445.647 154.255C446.055 154.831 446.533 155.323 447.096 155.745C447.658 156.167 448.277 156.491 448.98 156.702C449.683 156.927 450.414 157.025 451.188 157.025C453.157 157.025 454.689 156.322 455.758 154.916H455.814V156.8H458.894V135.594H455.674ZM451.694 154.1C450.499 154.1 449.528 153.706 448.783 152.919C448.024 152.131 447.658 151.105 447.658 149.853C447.658 149.206 447.757 148.602 447.968 148.039C448.178 147.477 448.474 147.013 448.839 146.647C449.205 146.281 449.627 145.986 450.119 145.775C450.611 145.578 451.146 145.466 451.708 145.466C452.903 145.466 453.888 145.888 454.647 146.717C455.407 147.561 455.8 148.602 455.8 149.853C455.8 151.119 455.407 152.131 454.619 152.919C453.832 153.706 452.847 154.1 451.694 154.1ZM475.924 149.614C475.924 148.264 475.643 147.041 475.094 145.972C474.532 144.903 473.744 144.073 472.703 143.455C471.663 142.85 470.453 142.541 469.103 142.541C468.133 142.541 467.233 142.723 466.389 143.075C465.546 143.427 464.814 143.919 464.21 144.538C463.591 145.17 463.113 145.93 462.775 146.83C462.424 147.73 462.255 148.714 462.255 149.769C462.255 151.203 462.564 152.483 463.197 153.594C463.816 154.705 464.674 155.548 465.771 156.139C466.853 156.73 468.077 157.025 469.441 157.025C470.749 157.025 471.902 156.786 472.9 156.308C473.899 155.83 474.714 155.183 475.361 154.367L473.111 152.441C472.225 153.552 471.058 154.1 469.61 154.1C468.569 154.1 467.697 153.819 466.98 153.242C466.263 152.68 465.799 151.892 465.602 150.894H475.839C475.896 150.556 475.924 150.134 475.924 149.614ZM469.272 145.466C469.863 145.466 470.397 145.592 470.875 145.831C471.353 146.07 471.733 146.394 472.028 146.816C472.324 147.238 472.549 147.73 472.689 148.292H465.658C465.883 147.392 466.319 146.703 466.966 146.211C467.613 145.719 468.372 145.466 469.272 145.466ZM483.757 157.025C484.628 157.025 485.402 156.927 486.077 156.702C486.752 156.477 487.3 156.181 487.722 155.788C488.144 155.394 488.453 154.944 488.678 154.438C488.889 153.931 489.002 153.369 489.002 152.764C489.002 152.188 488.918 151.681 488.749 151.231C488.453 150.528 487.849 149.923 486.921 149.417C486.555 149.234 485.627 148.841 484.136 148.25C483.63 148.053 483.236 147.884 482.941 147.716C482.632 147.561 482.393 147.378 482.196 147.181C481.999 146.984 481.9 146.759 481.9 146.534C481.9 146.141 482.055 145.845 482.378 145.634C482.702 145.438 483.053 145.325 483.433 145.325C483.813 145.325 484.193 145.381 484.586 145.48C484.966 145.592 485.36 145.761 485.782 145.986C486.203 146.211 486.597 146.492 486.963 146.83L488.58 144.298C487.118 143.131 485.458 142.541 483.602 142.541C482.168 142.541 480.972 142.92 480.044 143.68C479.116 144.439 478.652 145.381 478.652 146.52C478.652 146.97 478.694 147.392 478.807 147.758C478.905 148.138 479.06 148.475 479.257 148.77C479.453 149.066 479.678 149.333 479.932 149.558C480.171 149.797 480.466 150.008 480.803 150.205C481.141 150.402 481.478 150.556 481.816 150.697C482.139 150.838 482.519 150.978 482.941 151.119C483.996 151.484 484.727 151.78 485.121 152.005C485.514 152.23 485.725 152.497 485.725 152.834C485.725 153.256 485.543 153.58 485.191 153.833C484.839 154.086 484.361 154.213 483.757 154.213C482.913 154.213 482.168 154.086 481.521 153.819C480.874 153.552 480.269 153.13 479.707 152.553L478.075 154.972C479.622 156.35 481.521 157.025 483.757 157.025ZM494.036 140.656C494.416 140.656 494.768 140.572 495.105 140.375C495.443 140.178 495.71 139.925 495.907 139.588C496.103 139.264 496.202 138.913 496.202 138.519C496.202 137.942 495.977 137.436 495.555 137.014C495.133 136.592 494.627 136.381 494.036 136.381C493.418 136.381 492.911 136.592 492.489 137.014C492.068 137.436 491.857 137.928 491.857 138.519C491.857 139.109 492.068 139.616 492.489 140.038C492.911 140.459 493.418 140.656 494.036 140.656ZM492.405 156.8H495.625V142.752H492.405V156.8ZM510.264 142.752V144.228H510.208C509.618 143.68 508.957 143.258 508.197 142.963C507.438 142.681 506.664 142.527 505.849 142.527C504.555 142.527 503.402 142.836 502.389 143.441C501.363 144.059 500.561 144.903 499.999 145.986C499.436 147.069 499.155 148.278 499.155 149.628C499.155 151.006 499.45 152.216 500.041 153.27C500.632 154.339 501.461 155.155 502.502 155.717C503.543 156.28 504.71 156.561 506.018 156.561C507.761 156.561 509.182 155.998 510.278 154.845H510.335V156.336C510.335 157.334 509.969 158.164 509.238 158.811C508.507 159.472 507.466 159.795 506.144 159.795C505.23 159.795 504.428 159.683 503.739 159.458C503.05 159.233 502.263 158.881 501.363 158.403L500.603 161.244C501.391 161.722 502.277 162.073 503.261 162.327C504.246 162.58 505.258 162.706 506.327 162.706C507.339 162.706 508.253 162.594 509.069 162.355C509.871 162.116 510.546 161.778 511.094 161.356C511.643 160.934 512.093 160.4 512.458 159.781C512.824 159.163 513.077 158.488 513.246 157.756C513.4 157.025 513.485 156.223 513.485 155.352V142.752H510.264ZM506.439 153.594C505.272 153.594 504.316 153.228 503.557 152.497C502.797 151.766 502.432 150.767 502.432 149.53C502.432 148.348 502.797 147.378 503.543 146.619C504.274 145.873 505.244 145.494 506.439 145.494C506.988 145.494 507.508 145.592 508 145.789C508.478 145.986 508.9 146.253 509.252 146.591C509.603 146.928 509.885 147.35 510.096 147.856C510.293 148.363 510.405 148.897 510.405 149.488C510.405 150.683 510.025 151.667 509.294 152.441C508.563 153.214 507.607 153.594 506.439 153.594ZM525.508 142.541C524.58 142.541 523.722 142.723 522.907 143.089C522.091 143.455 521.388 143.989 520.797 144.678H520.755V142.752H517.535V156.8H520.755V149.741C520.755 149.066 520.839 148.461 521.008 147.913C521.177 147.378 521.43 146.928 521.753 146.563C522.063 146.211 522.457 145.944 522.907 145.747C523.357 145.564 523.849 145.466 524.397 145.466C524.903 145.466 525.325 145.536 525.691 145.663C526.057 145.803 526.366 146.014 526.647 146.309C526.914 146.605 527.111 146.998 527.252 147.505C527.378 148.011 527.449 148.63 527.449 149.361V156.814H530.669V148.531C530.669 146.506 530.205 145.002 529.291 144.017C528.377 143.033 527.111 142.541 525.508 142.541ZM536.435 157.025C537.025 157.025 537.532 156.828 537.953 156.406C538.375 155.984 538.6 155.478 538.6 154.888C538.6 154.297 538.375 153.791 537.953 153.369C537.532 152.947 537.025 152.736 536.435 152.736C536.027 152.736 535.661 152.834 535.324 153.031C534.986 153.228 534.719 153.481 534.522 153.819C534.325 154.156 534.241 154.508 534.241 154.888C534.241 155.478 534.452 155.984 534.874 156.406C535.296 156.828 535.816 157.025 536.435 157.025Z" fill="#9A9A9A" />
    <path d="M0 128.201L93.5087 19.2765L11.1199 124.48L122.151 143.254L98.7316 20.1221L136.641 162.028L0 128.201Z" fill="url('#gradient1haspr')" />
    <path d="M137.313 161.859L107.155 18.6L198.136 70.0176L113.389 28.7482L141.526 142.239L199.989 75.0916L137.313 161.859Z" fill="url('#gradient2haspr')" />
    <defs>
        <linearGradient id="gradient1haspr" x1="99.9102" y1="-0.119669" x2="54.1909" y2="182.664" gradientUnits="userSpaceOnUse">
            <stop stop-color="#BA8719" />
            <stop offset="1" stop-color="#FFEC7C" />
        </linearGradient>
        <linearGradient id="gradient2haspr" x1="107.472" y1="30.0249" x2="217.071" y2="130.263" gradientUnits="userSpaceOnUse">
            <stop stop-color="#FFEB70" />
            <stop offset="1" stop-color="#BF8A1F" />
        </linearGradient>
    </defs>
</svg>